<svg width="280" height="43" viewBox="0 0 280 43" fill="none" xmlns="http://www.w3.org/2000/svg">
<path d="M0.914 21.584C0.914 17.5627 1.784 13.986 3.524 10.854C5.264 7.68333 7.68067 5.228 10.774 3.488C13.906 1.70933 17.444 0.819998 21.388 0.819998C26.2213 0.819998 30.3587 2.096 33.8 4.648C37.2413 7.2 39.542 10.68 40.702 15.088H29.798C28.986 13.3867 27.826 12.0913 26.318 11.202C24.8487 10.3127 23.1667 9.868 21.272 9.868C18.2173 9.868 15.7427 10.9313 13.848 13.058C11.9533 15.1847 11.006 18.0267 11.006 21.584C11.006 25.1413 11.9533 27.9833 13.848 30.11C15.7427 32.2367 18.2173 33.3 21.272 33.3C23.1667 33.3 24.8487 32.8553 26.318 31.966C27.826 31.0767 28.986 29.7813 29.798 28.08H40.702C39.542 32.488 37.2413 35.968 33.8 38.52C30.3587 41.0333 26.2213 42.29 21.388 42.29C17.444 42.29 13.906 41.42 10.774 39.68C7.68067 37.9013 5.264 35.446 3.524 32.314C1.784 29.182 0.914 25.6053 0.914 21.584ZM72.1217 34.808H56.9257L54.4897 42H44.1077L58.8397 1.284H70.3237L85.0557 42H74.5577L72.1217 34.808ZM69.5697 27.152L64.5237 12.246L59.5357 27.152H69.5697ZM110.303 42L101.835 26.63H99.4574V42H89.5394V1.284H106.185C109.395 1.284 112.121 1.84467 114.363 2.966C116.645 4.08733 118.346 5.634 119.467 7.606C120.589 9.53933 121.149 11.7047 121.149 14.102C121.149 16.8087 120.376 19.2253 118.829 21.352C117.321 23.4787 115.079 24.9867 112.101 25.876L121.497 42H110.303ZM99.4574 19.612H105.605C107.423 19.612 108.776 19.1673 109.665 18.278C110.593 17.3887 111.057 16.132 111.057 14.508C111.057 12.9613 110.593 11.7433 109.665 10.854C108.776 9.96467 107.423 9.52 105.605 9.52H99.4574V19.612ZM153.881 1.284V9.23H137.293V17.814H149.705V25.528H137.293V42H127.375V1.284H153.881ZM169.012 1.284V42H159.094V1.284H169.012ZM205.49 1.284V9.23H194.702V42H184.784V9.23H173.996V1.284H205.49ZM220.385 1.284V42H210.467V1.284H220.385ZM252.513 42L244.219 29.53L236.911 42H225.659L238.709 21.294L225.369 1.284H236.911L245.089 13.58L252.281 1.284H263.533L250.599 21.816L264.055 42H252.513ZM273.674 42.464C271.934 42.464 270.503 41.9613 269.382 40.956C268.299 39.912 267.758 38.636 267.758 37.128C267.758 35.5813 268.299 34.286 269.382 33.242C270.503 32.198 271.934 31.676 273.674 31.676C275.375 31.676 276.767 32.198 277.85 33.242C278.971 34.286 279.532 35.5813 279.532 37.128C279.532 38.636 278.971 39.912 277.85 40.956C276.767 41.9613 275.375 42.464 273.674 42.464Z" fill="white"/>
</svg>
