<svg width="131" height="21" viewBox="0 0 131 21" fill="none" xmlns="http://www.w3.org/2000/svg">
<path d="M0.891 10.496C0.891 8.624 1.296 6.959 2.106 5.501C2.916 4.025 4.041 2.882 5.481 2.072C6.939 1.244 8.586 0.829999 10.422 0.829999C12.672 0.829999 14.598 1.424 16.2 2.612C17.802 3.8 18.873 5.42 19.413 7.472H14.337C13.959 6.68 13.419 6.077 12.717 5.663C12.033 5.249 11.25 5.042 10.368 5.042C8.946 5.042 7.794 5.537 6.912 6.527C6.03 7.517 5.589 8.84 5.589 10.496C5.589 12.152 6.03 13.475 6.912 14.465C7.794 15.455 8.946 15.95 10.368 15.95C11.25 15.95 12.033 15.743 12.717 15.329C13.419 14.915 13.959 14.312 14.337 13.52H19.413C18.873 15.572 17.802 17.192 16.2 18.38C14.598 19.55 12.672 20.135 10.422 20.135C8.586 20.135 6.939 19.73 5.481 18.92C4.041 18.092 2.916 16.949 2.106 15.491C1.296 14.033 0.891 12.368 0.891 10.496ZM34.0394 16.652H26.9654L25.8314 20H20.9984L27.8564 1.046H33.2024L40.0604 20H35.1734L34.0394 16.652ZM32.8514 13.088L30.5024 6.149L28.1804 13.088H32.8514ZM51.8136 20L47.8716 12.845H46.7646V20H42.1476V1.046H49.8966C51.3906 1.046 52.6596 1.307 53.7036 1.829C54.7656 2.351 55.5576 3.071 56.0796 3.989C56.6016 4.889 56.8626 5.897 56.8626 7.013C56.8626 8.273 56.5026 9.398 55.7826 10.388C55.0806 11.378 54.0366 12.08 52.6506 12.494L57.0246 20H51.8136ZM46.7646 9.578H49.6266C50.4726 9.578 51.1026 9.371 51.5166 8.957C51.9486 8.543 52.1646 7.958 52.1646 7.202C52.1646 6.482 51.9486 5.915 51.5166 5.501C51.1026 5.087 50.4726 4.88 49.6266 4.88H46.7646V9.578ZM72.0999 1.046V4.745H64.3779V8.741H70.1559V12.332H64.3779V20H59.7609V1.046H72.0999Z" fill="#3E3E3E"/>
<path d="M79.1435 1.046V20H74.5265V1.046H79.1435ZM96.1244 1.046V4.745H91.1024V20H86.4854V4.745H81.4634V1.046H96.1244ZM103.059 1.046V20H98.4416V1.046H103.059ZM118.014 20L114.153 14.195L110.751 20H105.513L111.588 10.361L105.378 1.046H110.751L114.558 6.77L117.906 1.046H123.144L117.123 10.604L123.387 20H118.014ZM127.865 20.216C127.055 20.216 126.389 19.982 125.867 19.514C125.363 19.028 125.111 18.434 125.111 17.732C125.111 17.012 125.363 16.409 125.867 15.923C126.389 15.437 127.055 15.194 127.865 15.194C128.657 15.194 129.305 15.437 129.809 15.923C130.331 16.409 130.592 17.012 130.592 17.732C130.592 18.434 130.331 19.028 129.809 19.514C129.305 19.982 128.657 20.216 127.865 20.216Z" fill="#025CA3"/>
</svg>
